<svg width="31" height="32" viewBox="0 0 31 32" fill="none" xmlns="http://www.w3.org/2000/svg">
<path d="M27.1202 2.92262H23.2507V0.342773H20.6709V2.92262H10.3527V0.342773H7.77286V2.92262H3.9034C2.87715 2.92262 1.89294 3.33029 1.16728 4.05596C0.44161 4.78162 0.0339355 5.76584 0.0339355 6.79208L0.0339355 31.2985H30.9896V6.79208C30.9896 5.76584 30.582 4.78162 29.8563 4.05596C29.1306 3.33029 28.1464 2.92262 27.1202 2.92262ZM2.61378 6.79208C2.6137 6.62268 2.647 6.45491 2.71177 6.29838C2.77655 6.14185 2.87153 5.99961 2.99129 5.87979C3.11105 5.75998 3.25324 5.66493 3.40974 5.60008C3.56625 5.53523 3.73399 5.50186 3.9034 5.50186H27.1202C27.2896 5.50186 27.4573 5.53523 27.6138 5.60008C27.7703 5.66493 27.9125 5.75998 28.0323 5.87979C28.1521 5.99961 28.247 6.14185 28.3118 6.29838C28.3766 6.45491 28.4099 6.62268 28.4098 6.79208V10.6615H2.61378V6.79208ZM2.61378 28.7186V13.2408H28.4098V28.7186H2.61378Z" fill="white"/>
<path d="M21.9612 17.1099H19.3813V19.6897H21.9612V17.1099Z" fill="white"/>
<path d="M16.802 17.1099H14.2222V19.6897H16.802V17.1099Z" fill="white"/>
<path d="M11.6423 17.1099H9.0625V19.6897H11.6423V17.1099Z" fill="white"/>
<path d="M21.9612 22.27H19.3813V24.8499H21.9612V22.27Z" fill="white"/>
<path d="M16.802 22.27H14.2222V24.8499H16.802V22.27Z" fill="white"/>
<path d="M11.6423 22.27H9.0625V24.8499H11.6423V22.27Z" fill="white"/>
</svg>
